<svg width="293" height="293" viewBox="0 0 293 293" fill="none" xmlns="http://www.w3.org/2000/svg">
<path d="M61.1423 256.375H231.858C245.327 256.375 256.246 245.443 256.246 231.958V61.0417C256.246 47.5567 245.327 36.625 231.858 36.625H61.1423C47.6732 36.625 36.7544 47.5567 36.7544 61.0417V231.958C36.7544 245.443 47.6732 256.375 61.1423 256.375ZM61.1423 256.375L195.276 122.083L256.246 183.125M122.112 103.771C122.112 113.885 113.923 122.083 103.821 122.083C93.7194 122.083 85.5303 113.885 85.5303 103.771C85.5303 93.6571 93.7194 85.4583 103.821 85.4583C113.923 85.4583 122.112 93.6571 122.112 103.771Z" stroke="#757575" stroke-width="4" stroke-linecap="round" stroke-linejoin="round"/>
</svg>
